<svg xmlns="http://www.w3.org/2000/svg" viewBox="-1 -1 29 7" width="290" height="70" shape-rendering="crispEdges" role="img" aria-label="AshPack"><rect x="1" y="0" width="1" height="1" fill="#8b5cf6"/><rect x="0" y="1" width="1" height="1" fill="#8b5cf6"/><rect x="2" y="1" width="1" height="1" fill="#8b5cf6"/><rect x="0" y="2" width="1" height="1" fill="#8b5cf6"/><rect x="1" y="2" width="1" height="1" fill="#8b5cf6"/><rect x="2" y="2" width="1" height="1" fill="#8b5cf6"/><rect x="0" y="3" width="1" height="1" fill="#8b5cf6"/><rect x="2" y="3" width="1" height="1" fill="#8b5cf6"/><rect x="0" y="4" width="1" height="1" fill="#8b5cf6"/><rect x="2" y="4" width="1" height="1" fill="#8b5cf6"/><rect x="4" y="0" width="1" height="1" fill="#2f7bf0"/><rect x="5" y="0" width="1" height="1" fill="#2f7bf0"/><rect x="6" y="0" width="1" height="1" fill="#2f7bf0"/><rect x="4" y="1" width="1" height="1" fill="#2f7bf0"/><rect x="4" y="2" width="1" height="1" fill="#2f7bf0"/><rect x="5" y="2" width="1" height="1" fill="#2f7bf0"/><rect x="6" y="2" width="1" height="1" fill="#2f7bf0"/><rect x="6" y="3" width="1" height="1" fill="#2f7bf0"/><rect x="4" y="4" width="1" height="1" fill="#2f7bf0"/><rect x="5" y="4" width="1" height="1" fill="#2f7bf0"/><rect x="6" y="4" width="1" height="1" fill="#2f7bf0"/><rect x="8" y="0" width="1" height="1" fill="#1a9450"/><rect x="10" y="0" width="1" height="1" fill="#1a9450"/><rect x="8" y="1" width="1" height="1" fill="#1a9450"/><rect x="10" y="1" width="1" height="1" fill="#1a9450"/><rect x="8" y="2" width="1" height="1" fill="#1a9450"/><rect x="9" y="2" width="1" height="1" fill="#1a9450"/><rect x="10" y="2" width="1" height="1" fill="#1a9450"/><rect x="8" y="3" width="1" height="1" fill="#1a9450"/><rect x="10" y="3" width="1" height="1" fill="#1a9450"/><rect x="8" y="4" width="1" height="1" fill="#1a9450"/><rect x="10" y="4" width="1" height="1" fill="#1a9450"/><rect x="12" y="0" width="1" height="1" fill="#a87700"/><rect x="13" y="0" width="1" height="1" fill="#a87700"/><rect x="12" y="1" width="1" height="1" fill="#a87700"/><rect x="14" y="1" width="1" height="1" fill="#a87700"/><rect x="12" y="2" width="1" height="1" fill="#a87700"/><rect x="13" y="2" width="1" height="1" fill="#a87700"/><rect x="12" y="3" width="1" height="1" fill="#a87700"/><rect x="12" y="4" width="1" height="1" fill="#a87700"/><rect x="17" y="0" width="1" height="1" fill="#e5484d"/><rect x="16" y="1" width="1" height="1" fill="#e5484d"/><rect x="18" y="1" width="1" height="1" fill="#e5484d"/><rect x="16" y="2" width="1" height="1" fill="#e5484d"/><rect x="17" y="2" width="1" height="1" fill="#e5484d"/><rect x="18" y="2" width="1" height="1" fill="#e5484d"/><rect x="16" y="3" width="1" height="1" fill="#e5484d"/><rect x="18" y="3" width="1" height="1" fill="#e5484d"/><rect x="16" y="4" width="1" height="1" fill="#e5484d"/><rect x="18" y="4" width="1" height="1" fill="#e5484d"/><rect x="21" y="0" width="1" height="1" fill="#8b5cf6"/><rect x="22" y="0" width="1" height="1" fill="#8b5cf6"/><rect x="20" y="1" width="1" height="1" fill="#8b5cf6"/><rect x="20" y="2" width="1" height="1" fill="#8b5cf6"/><rect x="20" y="3" width="1" height="1" fill="#8b5cf6"/><rect x="21" y="4" width="1" height="1" fill="#8b5cf6"/><rect x="22" y="4" width="1" height="1" fill="#8b5cf6"/><rect x="24" y="0" width="1" height="1" fill="#2f7bf0"/><rect x="26" y="0" width="1" height="1" fill="#2f7bf0"/><rect x="24" y="1" width="1" height="1" fill="#2f7bf0"/><rect x="26" y="1" width="1" height="1" fill="#2f7bf0"/><rect x="24" y="2" width="1" height="1" fill="#2f7bf0"/><rect x="25" y="2" width="1" height="1" fill="#2f7bf0"/><rect x="24" y="3" width="1" height="1" fill="#2f7bf0"/><rect x="26" y="3" width="1" height="1" fill="#2f7bf0"/><rect x="24" y="4" width="1" height="1" fill="#2f7bf0"/><rect x="26" y="4" width="1" height="1" fill="#2f7bf0"/></svg>
